<?xml version="1.0" encoding="utf-8"?>
<!-- Generator: Adobe Illustrator 19.2.0, SVG Export Plug-In . SVG Version: 6.00 Build 0)  -->
<svg version="1.1" id="Warstwa_1" xmlns="http://www.w3.org/2000/svg" xmlns:xlink="http://www.w3.org/1999/xlink" x="0px" y="0px"
	 viewBox="0 0 206 206" style="enable-background:new 0 0 206 206;" xml:space="preserve">
<style type="text/css">
	.st0{fill:#535529;}
	.st1{clip-path:url(#SVGID_2_);fill:#444421;}
	.st2{clip-path:url(#SVGID_4_);fill:#38381B;}
	.st3{fill:#FFF1E5;}
	.st4{clip-path:url(#SVGID_6_);fill:#DED3CD;}
	.st5{clip-path:url(#SVGID_8_);fill:#DED3CD;}
	.st6{clip-path:url(#SVGID_10_);fill:#DED3CD;}
	.st7{clip-path:url(#SVGID_12_);fill:#DED3CD;}
	.st8{fill:#59515C;}
</style>
<g id="Layer_2">
	<g>
		<circle class="st0" cx="103" cy="103" r="100"/>
		<g>
			<g>
				<defs>
					<circle id="SVGID_1_" cx="103" cy="103" r="100"/>
				</defs>
				<clipPath id="SVGID_2_">
					<use xlink:href="#SVGID_1_"  style="overflow:visible;"/>
				</clipPath>
				<polygon class="st1" points="162.2,45.3 203,86.1 203,203 86.3,203 44.9,161.2 57.7,110.4 45.1,97.8 99,45.3 107.4,53.7 				"/>
			</g>
		</g>
		<g>
			<g>
				<defs>
					<circle id="SVGID_3_" cx="103" cy="103" r="100"/>
				</defs>
				<clipPath id="SVGID_4_">
					<use xlink:href="#SVGID_3_"  style="overflow:visible;"/>
				</clipPath>
				<polygon class="st2" points="45.1,98.8 143.6,197.2 175,178.2 197.4,143.6 98.9,45.2 				"/>
			</g>
		</g>
		<path class="st3" d="M99.9,93.1c0,3.7-3,6.7-6.7,6.7H48.8c-3.7,0-6.7-3-6.7-6.7V48.8c0-3.7,3-6.7,6.7-6.7h44.4
			c3.7,0,6.7,3,6.7,6.7V93.1z"/>
		<path class="st3" d="M163.9,93.1c0,3.7-3,6.7-6.7,6.7h-44.4c-3.7,0-6.7-3-6.7-6.7V48.8c0-3.7,3-6.7,6.7-6.7h44.4
			c3.7,0,6.7,3,6.7,6.7L163.9,93.1L163.9,93.1z"/>
		<path class="st3" d="M99.9,157.2c0,3.7-3,6.7-6.7,6.7H48.8c-3.7,0-6.7-3-6.7-6.7v-44.4c0-3.7,3-6.7,6.7-6.7h44.4
			c3.7,0,6.7,3,6.7,6.7V157.2z"/>
		<path class="st3" d="M163.9,157.2c0,3.7-3,6.7-6.7,6.7h-44.4c-3.7,0-6.7-3-6.7-6.7v-44.4c0-3.7,3-6.7,6.7-6.7h44.4
			c3.7,0,6.7,3,6.7,6.7L163.9,157.2L163.9,157.2z"/>
		<g>
			<g>
				<defs>
					<path id="SVGID_5_" d="M163.9,93.1c0,3.7-3,6.7-6.7,6.7h-44.4c-3.7,0-6.7-3-6.7-6.7V48.8c0-3.7,3-6.7,6.7-6.7h44.4
						c3.7,0,6.7,3,6.7,6.7L163.9,93.1L163.9,93.1z"/>
				</defs>
				<clipPath id="SVGID_6_">
					<use xlink:href="#SVGID_5_"  style="overflow:visible;"/>
				</clipPath>
				<polygon class="st4" points="147.5,69.2 121.6,74.5 148.4,101.4 163.9,101.4 163.9,85.7 				"/>
			</g>
		</g>
		<g>
			<g>
				<defs>
					<path id="SVGID_7_" d="M163.9,157.2c0,3.7-3,6.7-6.7,6.7h-44.4c-3.7,0-6.7-3-6.7-6.7v-44.4c0-3.7,3-6.7,6.7-6.7h44.4
						c3.7,0,6.7,3,6.7,6.7L163.9,157.2L163.9,157.2z"/>
				</defs>
				<clipPath id="SVGID_8_">
					<use xlink:href="#SVGID_7_"  style="overflow:visible;"/>
				</clipPath>
				<polygon class="st5" points="147.7,125.3 126.5,126.8 121.3,129.7 130,138.4 121.6,144.2 141.3,163.9 163.9,163.9 163.7,141.5 
									"/>
			</g>
		</g>
		<g>
			<g>
				<defs>
					<path id="SVGID_9_" d="M99.9,157.2c0,3.7-3,6.7-6.7,6.7H48.8c-3.7,0-6.7-3-6.7-6.7v-44.4c0-3.7,3-6.7,6.7-6.7h44.4
						c3.7,0,6.7,3,6.7,6.7V157.2z"/>
				</defs>
				<clipPath id="SVGID_10_">
					<use xlink:href="#SVGID_9_"  style="overflow:visible;"/>
				</clipPath>
				<polygon class="st6" points="80.8,125.5 61.9,144.4 81.5,163.9 101.4,163.9 101.4,144.3 81.5,124.4 				"/>
			</g>
		</g>
		<g>
			<g>
				<defs>
					<path id="SVGID_11_" d="M99.9,93.1c0,3.7-3,6.7-6.7,6.7H48.8c-3.7,0-6.7-3-6.7-6.7V48.8c0-3.7,3-6.7,6.7-6.7h44.4
						c3.7,0,6.7,3,6.7,6.7V93.1z"/>
				</defs>
				<clipPath id="SVGID_12_">
					<use xlink:href="#SVGID_11_"  style="overflow:visible;"/>
				</clipPath>
				<polygon class="st7" points="71.9,71.6 58.8,74.4 85.9,101.4 101.4,101.4 101.4,85.7 74.5,59 				"/>
			</g>
		</g>
		<g>
			<g>
				<g>
					<path class="st8" d="M81.7,67.7h-6.2v-6.2c0-2.1-1.8-3.9-3.9-3.9l0,0c-2.1,0-3.9,1.8-3.9,3.9v6.2h-6.2c-2.1,0-3.9,1.8-3.9,3.9
						c0,2.1,1.8,3.9,3.9,3.9h6.2v6.2c0,2.1,1.8,3.9,3.9,3.9l0,0c2.1,0,3.9-1.8,3.9-3.9v-6.2h6.2c2.1,0,3.9-1.8,3.9-3.9
						C85.6,69.5,83.9,67.7,81.7,67.7z"/>
				</g>
			</g>
			<g>
				<path class="st8" d="M144.4,75.5h-20.1c-2.1,0-3.9-1.8-3.9-3.9l0,0c0-2.1,1.8-3.9,3.9-3.9h20.1c2.1,0,3.9,1.8,3.9,3.9l0,0
					C148.3,73.8,146.6,75.5,144.4,75.5z"/>
			</g>
			<g>
				<path class="st8" d="M81.5,130l-14.2,14.2c-1.5,1.5-4,1.5-5.5,0l0,0c-1.5-1.5-1.5-4,0-5.5L76,124.4c1.5-1.5,4-1.5,5.5,0l0,0
					C83,126,83,128.4,81.5,130z"/>
				<path class="st8" d="M67.3,124.4l14.2,14.2c1.5,1.5,1.5,4,0,5.5l0,0c-1.5,1.5-4,1.5-5.5,0L61.8,130c-1.5-1.5-1.5-4,0-5.5l0,0
					C63.3,122.9,65.8,122.9,67.3,124.4z"/>
			</g>
			<g>
				<g>
					<path class="st8" d="M144.4,137.5h-20.1c-2.1,0-3.9,1.8-3.9,3.9s1.8,3.9,3.9,3.9h20.1c2.1,0,3.9-1.8,3.9-3.9
						C148.3,139.3,146.6,137.5,144.4,137.5z M124.3,131.1h20.1c2.1,0,3.9-1.8,3.9-3.9c0-2.1-1.8-3.9-3.9-3.9h-20.1
						c-2.1,0-3.9,1.8-3.9,3.9C120.4,129.4,122.1,131.1,124.3,131.1z"/>
				</g>
			</g>
		</g>
	</g>
</g>
</svg>
