<?xml version="1.0" encoding="utf-8"?>
<!-- Generator: Adobe Illustrator 19.2.0, SVG Export Plug-In . SVG Version: 6.00 Build 0)  -->
<svg version="1.1" id="objects" xmlns="http://www.w3.org/2000/svg" xmlns:xlink="http://www.w3.org/1999/xlink" x="0px" y="0px"
	 viewBox="0 0 206 206" style="enable-background:new 0 0 206 206;" xml:space="preserve">
<style type="text/css">
	.st0{fill:#564629;}
	.st1{fill:#352A1A;}
	.st2{fill:#FFC73D;}
	.st3{fill:none;stroke:#FFAC3D;stroke-width:2;stroke-miterlimit:10;}
	.st4{fill:#D9D3D2;}
	.st5{fill:#CEECEF;}
	.st6{fill:#02084D;}
</style>
<g>
	<g>
		<circle class="st0" cx="103" cy="103" r="100"/>
		<path class="st1" d="M201.8,118.5l-58.3-58.3l-83.7,83.7l58.1,58.1C161,195.5,195.1,161.5,201.8,118.5z"/>
	</g>
	<g>
		<path class="st2" d="M162.1,105.7l0.1-2.5l-0.1-2.7l-0.7,0c0-1.1-0.1-2.1-0.2-3.1l0.7-0.1c0,0,0-0.2,0-0.4c0-0.2-0.1-0.6-0.1-0.9
			c-0.1-0.6-0.2-1.3-0.2-1.3l-0.7,0.1c0,0,0,0,0,0l0.7-0.1c0,0-0.1-0.6-0.2-1.3c-0.1-0.6-0.2-1.3-0.2-1.3l-0.7,0.1
			c-0.2-1-0.4-2-0.6-3l0.7-0.2c0,0-0.1-0.6-0.3-1.3c-0.2-0.6-0.4-1.2-0.4-1.2s-0.2-0.6-0.4-1.3c-0.2-0.6-0.4-1.2-0.4-1.2l-0.7,0.2
			c-0.3-1-0.7-1.9-1-2.9l0.7-0.3c0,0-0.2-0.6-0.5-1.2c-0.3-0.6-0.5-1.2-0.5-1.2s-0.3-0.6-0.5-1.2c-0.1-0.3-0.3-0.6-0.4-0.8
			c-0.1-0.2-0.2-0.4-0.2-0.4l-0.7,0.3c-0.5-0.9-0.9-1.8-1.4-2.7l0.7-0.4c0,0-0.3-0.6-0.6-1.1c-0.2-0.3-0.3-0.6-0.5-0.8
			c-0.1-0.2-0.2-0.3-0.2-0.3s-0.4-0.5-0.7-1.1c-0.3-0.6-0.7-1.1-0.7-1.1l-0.6,0.4c-0.6-0.8-1.2-1.7-1.8-2.5l0.6-0.5
			c0,0-0.4-0.5-0.8-1c-0.4-0.5-0.8-1-0.8-1s-0.4-0.5-0.9-1c-0.4-0.5-0.9-1-0.9-1l-0.6,0.5c-0.7-0.7-1.4-1.5-2.1-2.2l0.5-0.5
			c0,0-0.5-0.4-0.9-0.9c-0.5-0.4-0.9-0.9-0.9-0.9l-2-1.7l-0.5,0.6c-0.8-0.6-1.6-1.3-2.4-1.9l0.4-0.6l-2.1-1.5l-2.2-1.4l-0.4,0.6
			c-0.9-0.5-1.7-1-2.6-1.5l0.4-0.7l-2.3-1.2c0,0-0.1-0.1-0.4-0.2c-0.2-0.1-0.5-0.2-0.8-0.4c-0.6-0.3-1.2-0.5-1.2-0.5l-0.3,0.7
			c-0.9-0.4-1.9-0.8-2.8-1.1l0.3-0.7c0,0-0.2-0.1-0.4-0.1c-0.2-0.1-0.5-0.2-0.8-0.3c-0.6-0.2-1.2-0.4-1.2-0.4s-0.6-0.2-1.2-0.4
			c-0.6-0.2-1.3-0.4-1.3-0.4l-0.2,0.7c-1-0.3-2-0.5-2.9-0.7l0.2-0.7c0,0-0.6-0.2-1.3-0.3c-0.6-0.1-1.3-0.2-1.3-0.2s-0.6-0.1-1.3-0.2
			c-0.6-0.1-1.3-0.2-1.3-0.2l-0.1,0.7c-1-0.1-2-0.2-3-0.3l0.1-0.7c0,0-0.6,0-1.3-0.1c-0.6,0-1.3,0-1.3,0s-0.7,0-1.3,0
			c-0.6,0-1.3,0-1.3,0l0,0.8c-1,0-2,0-3,0.1l0-0.7c0,0-0.6,0-1.3,0.1c-0.6,0.1-1.3,0.1-1.3,0.1l-2.6,0.3l0.1,0.7c-1,0.1-2,0.3-3,0.5
			L91.2,45l-2.5,0.6c0,0-0.6,0.1-1.3,0.3c-0.6,0.2-1.3,0.4-1.3,0.4l0.2,0.7c-1,0.3-1.9,0.6-2.9,0.9l-0.3-0.7c0,0-0.6,0.2-1.2,0.4
			c-0.6,0.2-1.2,0.5-1.2,0.5s-0.6,0.2-1.2,0.5c-0.6,0.3-1.2,0.5-1.2,0.5l0.3,0.7c-0.9,0.4-1.8,0.9-2.7,1.3l-0.3-0.7
			c0,0-0.6,0.3-1.1,0.6c-0.6,0.3-1.1,0.6-1.1,0.6s-0.6,0.3-1.1,0.7c-0.5,0.4-1.1,0.7-1.1,0.7l0.4,0.6c-0.9,0.5-1.7,1.1-2.5,1.7
			l-0.4-0.6c0,0-0.5,0.4-1.1,0.8c-0.5,0.4-1,0.8-1,0.8s-0.5,0.4-1,0.8c-0.5,0.4-1,0.8-1,0.8l0.5,0.6c-0.8,0.7-1.5,1.3-2.3,2
			l-0.5-0.5c0,0-0.5,0.4-0.9,0.9c-0.5,0.4-0.9,0.9-0.9,0.9s-0.4,0.5-0.9,0.9c-0.5,0.5-0.9,1-0.9,1l0.6,0.5c-0.7,0.8-1.3,1.5-2,2.3
			l-0.6-0.5c0,0-0.4,0.5-0.8,1c-0.4,0.5-0.8,1-0.8,1s-0.4,0.5-0.8,1.1c-0.4,0.5-0.7,1.1-0.7,1.1l0.6,0.4c-0.6,0.8-1.1,1.7-1.6,2.6
			L52,73c0,0-0.3,0.6-0.6,1.1c-0.3,0.6-0.6,1.1-0.6,1.1c0,0-0.3,0.6-0.6,1.2c-0.3,0.6-0.6,1.2-0.6,1.2l0.7,0.3
			c-0.4,0.9-0.8,1.8-1.2,2.8l-0.7-0.3l-0.9,2.4l-0.8,2.5l0.7,0.2c-0.3,1-0.6,1.9-0.8,2.9l-0.7-0.2l-0.6,2.5c0,0,0,0.2-0.1,0.4
			c0,0.2-0.1,0.6-0.2,0.9c-0.1,0.6-0.2,1.3-0.2,1.3l0.7,0.1c-0.2,1-0.3,2-0.4,3l-0.7-0.1c0,0-0.1,0.6-0.1,1.3c0,0.6-0.1,1.3-0.1,1.3
			s-0.1,0.6-0.1,1.3c0,0.6,0,1.3,0,1.3l0.8,0c0,0.5,0,1,0,1.5c0,0.5,0,1,0,1.5l-0.8,0c0,0,0,0.6,0,1.3c0,0.6,0.1,1.3,0.1,1.3
			s0.1,0.6,0.1,1.3c0,0.6,0.1,1.3,0.1,1.3l0.7-0.1c0.1,1,0.3,2,0.4,3l-0.7,0.1c0,0,0.1,0.6,0.2,1.3c0.1,0.3,0.1,0.6,0.2,0.9
			c0.1,0.2,0.1,0.4,0.1,0.4l0.6,2.5l0.7-0.2c0.3,1,0.5,2,0.8,2.9l-0.7,0.2l0.8,2.4l0.9,2.4l0.7-0.3c0.4,0.9,0.8,1.9,1.2,2.8
			l-0.7,0.3c0,0,0.3,0.6,0.6,1.2c0.3,0.6,0.6,1.1,0.6,1.1c0,0,0.3,0.6,0.6,1.1c0.3,0.6,0.6,1.1,0.6,1.1l0.6-0.4
			c0.5,0.9,1.1,1.7,1.6,2.6l-0.6,0.4c0,0,0.3,0.5,0.7,1.1c0.4,0.5,0.7,1.1,0.7,1.1s0.4,0.5,0.8,1c0.4,0.5,0.8,1,0.8,1l0.6-0.5
			c0.6,0.8,1.3,1.6,2,2.3l-0.6,0.5c0,0,0.4,0.5,0.9,1c0.4,0.5,0.9,0.9,0.9,0.9s0.4,0.5,0.9,0.9c0.5,0.4,0.9,0.9,0.9,0.9l0.5-0.5
			c0.7,0.7,1.5,1.4,2.3,2l-0.5,0.6c0,0,0.5,0.4,1,0.8c0.5,0.4,1,0.8,1,0.8s0.5,0.4,1,0.8c0.5,0.4,1.1,0.8,1.1,0.8l0.4-0.6
			c0.8,0.6,1.7,1.2,2.5,1.7l-0.4,0.6c0,0,0.5,0.3,1.1,0.7c0.6,0.3,1.1,0.6,1.1,0.6s0.6,0.3,1.1,0.6c0.6,0.3,1.2,0.6,1.2,0.6l0.3-0.7
			c0.9,0.5,1.8,0.9,2.7,1.3l-0.3,0.7c0,0,0.6,0.3,1.2,0.5c0.6,0.3,1.2,0.5,1.2,0.5s0.6,0.2,1.2,0.5c0.6,0.2,1.2,0.4,1.2,0.4l0.3-0.7
			c1,0.3,1.9,0.6,2.9,0.9l-0.2,0.7c0,0,0.6,0.2,1.2,0.4c0.6,0.2,1.2,0.3,1.2,0.3s0.6,0.1,1.3,0.3c0.6,0.1,1.3,0.3,1.3,0.3l0.1-0.7
			c1,0.2,2,0.4,3,0.5l-0.1,0.7l2.6,0.3c0,0,0.6,0.1,1.3,0.1c0.6,0,1.3,0.1,1.3,0.1l0-0.7c1,0.1,2,0.1,3,0.1l0,0.8c0,0,0.6,0,1.3,0
			c0.6,0,1.3,0,1.3,0c0,0,0.6,0,1.3,0c0.6,0,1.3-0.1,1.3-0.1l-0.1-0.7c1-0.1,2-0.2,3-0.3l0.1,0.7c0,0,0.6-0.1,1.3-0.2
			c0.6-0.1,1.3-0.2,1.3-0.2s0.6-0.1,1.3-0.2c0.6-0.1,1.3-0.3,1.3-0.3l-0.2-0.7c1-0.2,2-0.5,2.9-0.7l0.2,0.7c0,0,0.6-0.2,1.2-0.4
			c0.6-0.2,1.2-0.4,1.2-0.4s0.6-0.2,1.2-0.4c0.3-0.1,0.6-0.2,0.8-0.3c0.2-0.1,0.4-0.1,0.4-0.1l-0.3-0.7c1-0.4,1.9-0.7,2.8-1.1
			l0.3,0.7c0,0,0.6-0.3,1.2-0.5c0.3-0.1,0.6-0.3,0.8-0.4c0.2-0.1,0.4-0.2,0.4-0.2l2.3-1.2l-0.4-0.7c0.9-0.5,1.8-1,2.6-1.5l0.4,0.6
			l2.2-1.4l2.1-1.5l-0.4-0.6c0.8-0.6,1.6-1.2,2.4-1.9l0.5,0.6l2-1.7c0,0,0.5-0.4,1-0.9c0.5-0.4,0.9-0.9,0.9-0.9l-0.5-0.5
			c0.7-0.7,1.4-1.4,2.1-2.2l0.6,0.5c0,0,0.4-0.5,0.9-1c0.4-0.5,0.8-1,0.8-1s0.4-0.5,0.8-1c0.4-0.5,0.8-1,0.8-1l-0.6-0.5
			c0.6-0.8,1.2-1.6,1.8-2.5l0.6,0.4c0,0,0.4-0.5,0.7-1.1c0.3-0.5,0.7-1.1,0.7-1.1s0.4-0.5,0.7-1.1c0.3-0.6,0.6-1.1,0.6-1.1l-0.7-0.4
			c0.5-0.9,1-1.8,1.4-2.7l0.7,0.3c0,0,0.1-0.1,0.2-0.4c0.1-0.2,0.3-0.5,0.4-0.8c0.3-0.6,0.5-1.2,0.5-1.2s0.3-0.6,0.5-1.2
			c0.2-0.6,0.5-1.2,0.5-1.2l-0.7-0.3c0.4-0.9,0.7-1.9,1-2.9l0.7,0.2c0,0,0.2-0.6,0.4-1.2c0.2-0.6,0.4-1.2,0.4-1.2s0.2-0.6,0.4-1.3
			c0.2-0.6,0.3-1.3,0.3-1.3l-0.7-0.2c0.2-1,0.4-2,0.6-3l0.7,0.1c0,0,0.1-0.6,0.2-1.3c0.1-0.6,0.2-1.3,0.2-1.3l0,0
			c0,0,0.1-0.6,0.2-1.3c0-0.3,0.1-0.6,0.1-0.9c0-0.2,0-0.4,0-0.4l-0.7-0.1c0.1-1,0.2-1.9,0.2-2.9L162.1,105.7z"/>
		<circle class="st3" cx="103" cy="103" r="48.6"/>
		<g>
			<path class="st4" d="M145.3,103c0-22.9-19.3-41.4-41.3-41.6v83.1C126,144.4,145.3,125.9,145.3,103z"/>
			<path class="st5" d="M103.3,144.6c0.1,0-0.3,0,0.7,0V61.4c-1,0-0.6,0-0.7,0c-23,0-41.6,18.6-41.6,41.6S80.4,144.6,103.3,144.6z"
				/>
		</g>
		<g>
			<path class="st6" d="M118.8,124.1c-2.2,1.5-6,3-10.7,3c-5.8,0-11-2.2-14.6-6.4c-2.7-3-4.5-7.2-5.2-12.3h-4.5v-3.5H88
				c0-0.4,0-0.7,0-1.1c0-1.1,0.1-2.2,0.1-3.2h-4.2V97h4.7c0.9-5,3-9.2,5.9-12.1c3.7-3.8,8.3-6,14.2-6c4.2,0,7.5,1.2,9.5,2.3
				l-1.4,4.7c-1.8-1.1-4.8-2-8-2c-3.9,0-7,1.4-9.5,4c-2.1,2.1-3.6,5.3-4.3,9.1h20v3.6H94.4c-0.1,0.9-0.1,2-0.1,3c0,0.4,0,0.8,0,1.3
				H115v3.5H94.7c0.6,4.2,2,7.2,3.9,9.4c2.7,2.8,6.2,4.2,10.1,4.2c3.8,0,7.1-1.4,8.8-2.4L118.8,124.1z"/>
		</g>
	</g>
</g>
</svg>
