<?xml version="1.0" encoding="utf-8"?>
<!-- Generator: Adobe Illustrator 19.2.0, SVG Export Plug-In . SVG Version: 6.00 Build 0)  -->
<svg version="1.1" id="Warstwa_1" xmlns="http://www.w3.org/2000/svg" xmlns:xlink="http://www.w3.org/1999/xlink" x="0px" y="0px"
	 viewBox="0 0 206 206" style="enable-background:new 0 0 206 206;" xml:space="preserve">
<style type="text/css">
	.st0{fill:#25404D;}
	.st1{fill:#1A2D35;}
	.st2{fill:#FFFFFF;}
	.st3{fill:#B2401D;}
	.st4{fill:#D34624;}
	.st5{fill:#CCCCCC;}
</style>
<circle class="st0" cx="103" cy="103" r="100"/>
<path class="st1" d="M203,103c0-4.5-0.3-8.9-0.9-13.2l-40-40l-5.2,3.9l-16.4-16.1l-17.7,19.8l-8.9,11.3l-10.5,6.5l12.9,13.5
	l-2.2,5.4L105,84L89.7,98.8l-20.1-19l-6.1,28l-26.7,5.6l21.8,25.3l-16.6,9.3L97,202.8c2,0.1,4,0.2,6,0.2
	C158.2,203,203,158.2,203,103z"/>
<g>
	<path class="st2" d="M102.8,74.2c0,0,0,1.2,2.2,1.3l5.9,0.8c0,0,1.7,0.2,2.7,2.3c0,0,1.6,2.5,0.9,3.7l-4.7,6.8c0,0-1,1.1,0.1,2.5
		l5,4.8c0,0,1.6,0.9,2.6-0.3l4.6-3.6c0,0,1.7-1.7,4.4-0.4c0,0,2.9,0.9,3.2,2.9l1,7.1c0,0,0,1.7,2.2,1.6h6.2c0,0,1.9-0.3,2-1.8
		l0.8-6.4c0,0-0.1-1.8,2.2-2.9c0,0,2.8-2,4.8-0.5l5.6,4.2c0,0,1.1,1.1,3-0.2l4.2-4.2c0,0,1.4-1.5,0-3.1l-3.9-5.2c0,0-1.2-1.3,0-3.9
		c0,0,0.9-3.1,3.2-3.3l6.4-0.9c0,0,2,0,2-2.1l-0.1-5.8c0,0,0.1-2.2-2.2-2.5l-6.7-0.6c0,0-2-0.9-2.7-2.8c0,0-1.2-2.9,0.2-4.4l3.9-5.3
		c0,0,1.1-1.6,0.1-2.8l-5.1-4.9c0,0-1.3-0.6-2.1,0.2l-6.1,4.7c0,0-2.2,0.7-4.2-0.7c0,0-2.2-1.2-2.5-2c0,0-1-7.4-1-7.8
		c0,0-0.1-1.6-1.7-1.7l-6.6,0c0,0-1.4,0.2-1.6,1.4l-1.2,8.4c0,0-1.2,1.7-2.9,2.1c0,0-3,0.7-4,0l-5.5-4.1c0,0-1.5-1.4-2.9-0.1
		l-4.7,4.7c0,0-0.9,1,0,2.2l4.6,6c0,0,1.5,1.7-0.5,4.8c0,0-0.9,2.5-4,2.8c-3,0.3-5.7,0.8-5.7,0.8s-1.6,0.1-1.7,1.8
		C102.4,69.2,102.8,74.2,102.8,74.2z M123.2,70.3c0-7,5.7-12.7,12.7-12.7c7,0,12.7,5.7,12.7,12.7c0,7-5.7,12.7-12.7,12.7
		C128.9,83,123.2,77.3,123.2,70.3z"/>
	<path class="st3" d="M41.6,147.3c0,0,0.6,1.6,3.5,0.4l8-2.2c0,0,2.3-0.7,4.8,1.5c0,0,3.4,2.3,3.2,4.3l-2.2,11.3
		c0,0-0.7,1.9,1.5,3.1l9,3.4c0,0,2.5,0.2,3.2-1.8l3.9-7.1c0,0,1.3-3.1,5.5-2.9c0,0,4.2-0.4,5.7,1.9l5.1,8.5c0,0,0.9,2.2,3.7,0.9
		l8-3.4c0,0,2.2-1.5,1.5-3.5l-2.5-8.6c0,0-1.1-2.3,1.2-4.9c0,0,2.5-4.1,5.9-3.3l9.5,2.3c0,0,2,0.9,3.7-1.9l3.1-7.6
		c0,0,0.9-2.7-1.7-3.9l-7.9-4.6c0,0-2.2-1-2.1-5c0,0-0.6-4.5,2.2-6l7.7-4.7c0,0,2.5-1.1,1.5-3.8l-3.3-7.4c0,0-1.1-2.9-4.2-2l-9,2.9
		c0,0-3.1,0-5-2.1c0,0-3.2-3.1-2.2-5.7l2.1-9c0,0,0.5-2.6-1.5-3.6l-9.3-3.5c0,0-2-0.1-2.6,1.4L86.4,90c0,0-2.4,2-5.8,1.4
		c0,0-3.5-0.3-4.3-1.2c0,0-5.3-8.9-5.5-9.4c0,0-1-2-3-1.2l-8.5,3.6c0,0-1.7,1.1-1.3,2.6l3,11.4c0,0-0.6,2.8-2.6,4.3
		c0,0-3.5,2.6-5.1,2.3l-9.3-2.3c0,0-2.7-1-3.7,1.4l-3.5,8.6c0,0-0.7,1.8,1.2,2.9l9.1,5.2c0,0,2.9,1.3,2.1,6.4c0,0,0.2,3.7-3.5,5.8
		c-3.7,2-6.9,4.1-6.9,4.1s-2,1-1.2,3.2C38.3,141,41.6,147.3,41.6,147.3z M65.7,131.1c-3.8-9,0.3-19.4,9.3-23.2
		c9-3.8,19.4,0.3,23.2,9.3c3.8,9-0.3,19.4-9.3,23.2S69.5,140,65.7,131.1z"/>
</g>
<path class="st4" d="M81.7,96.1c0,0-29.9-0.7-27.3,33.7C54.4,129.8,54.7,102.5,81.7,96.1z"/>
<path class="st4" d="M85.2,153.2c0,0,29.8-2.3,23.7-36.3C108.9,116.9,111.3,144.1,85.2,153.2z"/>
<path class="st5" d="M139.4,50.6c0,0-20.9-4.9-24.1,19.7C115.3,70.3,119.5,51.2,139.4,50.6z"/>
<path class="st5" d="M131,89.9c0,0,20.6,6.2,25.3-18.1C156.3,71.7,150.9,90.6,131,89.9z"/>
</svg>
