<?xml version="1.0" encoding="utf-8"?>
<!-- Generator: Adobe Illustrator 19.2.0, SVG Export Plug-In . SVG Version: 6.00 Build 0)  -->
<svg version="1.1" id="Layer_1" xmlns="http://www.w3.org/2000/svg" xmlns:xlink="http://www.w3.org/1999/xlink" x="0px" y="0px"
	 viewBox="0 0 1266.1 211.3" style="enable-background:new 0 0 1266.1 211.3;" xml:space="preserve">
<style type="text/css">
	.st0{opacity:0.25;}
	.st1{fill:#FFFFFF;}
</style>
<g class="st0">
	<path class="st1" d="M154.9,70.7l-21.1,16.7H127l17.2-13.6l8-6.4l0,0c0.1-0.1,0.2-0.2,0.2-0.2c0.8-0.8,1-1.8,0.8-2.8
		c-0.1-0.4-0.3-0.8-0.5-1.2l-21.9-27.6l-6.4-8c-1-1.3-2.9-1.5-4.2-0.5l-8,6.4l-68.1,54h-6.8l80.3-63.6c3.1-2.5,7.6-1.9,10.1,1.2
		L156,60.6C158.5,63.7,158,68.3,154.9,70.7z M145,56.4C145,56.4,145,56.4,145,56.4l-15.7-19.8c-5.1,3-11.6,2.3-15.9-1.8L47,87.4
		h32.1c-4.9-8.7-3.8-19.1,3.1-24.6c7.8-6.2,20.1-3.7,27.4,5.6c4.6,5.8,6.2,13,4.8,19h9.8l19.1-15.1C140.2,67.2,140.9,60.7,145,56.4z
		 M95.6,76.3c-3.3,1-4.8,1.2-5.6,0.3c-0.7-0.8-0.7-2.1,1.2-3.7c2.1-1.7,4-2.1,5.1-2.4l-1.8-4c-1.4,0.3-3,0.9-5.1,2.4l-1-1.3
		c-0.3-0.3-0.7-0.6-1.1-0.6c-0.5-0.1-0.9,0.1-1.2,0.3l-0.3,0.2c-0.3,0.3-0.6,0.7-0.6,1.1c-0.1,0.5,0.1,0.9,0.3,1.2l1.2,1.5
		c-2.7,3.1-2.9,6.6-0.8,9.2c2.3,2.9,5.6,2.6,9.6,1.2c2.8-1,4.3-1,5.2,0.1c0.9,1.2,0.3,2.8-1.4,4.1c-0.7,0.5-1.4,1-2.2,1.4h7
		c2.8-3.2,2.8-6.9,0.8-9.5C102.8,75.3,100.1,74.8,95.6,76.3z"/>
	<path class="st1" d="M155.8,83.3h-10.1l7.6-6c0,0,0.1,0.1,0.1,0.1c1.6,1.6,2.4,3.6,2.4,5.7V83.3z M171.9,139v19.3
		c0,0.6-0.2,1.2-0.7,1.7c-0.5,0.5-1.1,0.7-1.7,0.7h-33.8c-3.1,0-6.2-1.2-8.5-3.5c-2.4-2.4-3.5-5.4-3.5-8.5c0-3.1,1.2-6.2,3.5-8.5
		c2.4-2.4,5.4-3.5,8.5-3.5h33.8c0.6,0,1.2,0.2,1.7,0.7C171.6,137.7,171.9,138.4,171.9,139z M141.8,148.6c0-3.4-2.7-6.1-6.1-6.1
		c-3.4,0-6.1,2.7-6.1,6.1c0,3.4,2.7,6.1,6.1,6.1C139.1,154.7,141.8,152,141.8,148.6z M135.7,164.7h31.6v28.9c0,3.1-1.2,6.2-3.5,8.5
		c-2.4,2.4-5.4,3.5-8.5,3.5H17.7c-3.1,0-6.2-1.2-8.5-3.5c-2.4-2.4-3.5-5.4-3.5-8.5V87c0-3.1,1.2-6.2,3.5-8.5
		c2.4-2.4,5.4-3.5,8.5-3.5h8l-3.6,8.3H18c-1,0-2.1,0.4-2.8,1.2c-0.8,0.8-1.2,1.8-1.2,2.8v0.3c0,1,0.4,2.1,1.2,2.8
		c0.8,0.8,1.8,1.2,2.8,1.2h137.3c3.1,0,6.2,1.2,8.5,3.5c2.4,2.4,3.5,5.4,3.5,8.5v28.9h-31.6c-4.3,0-8.3,1.7-11.4,4.7
		c-3,3-4.7,7.1-4.7,11.4c0,4.3,1.7,8.3,4.7,11.4C127.4,163,131.4,164.7,135.7,164.7z M158.1,121.7c0-0.7-0.5-1.2-1.2-1.2
		s-1.2,0.5-1.2,1.2v5.6c0,0.7,0.5,1.2,1.2,1.2s1.2-0.5,1.2-1.2V121.7z M158.1,109.6c0-0.7-0.5-1.2-1.2-1.2s-1.2,0.5-1.2,1.2v5.6
		c0,0.7,0.5,1.2,1.2,1.2s1.2-0.5,1.2-1.2V109.6z M153.4,102c0,0.7,0.5,1.2,1.2,1.2h0.6c0.2,0,0.4,0.2,0.4,0.4v0.6
		c0,0.7,0.5,1.2,1.2,1.2s1.2-0.5,1.2-1.2v-0.6c0-1.5-1.3-2.8-2.8-2.8h-0.6C154,100.8,153.4,101.3,153.4,102z M142.7,102
		c0,0.7,0.5,1.2,1.2,1.2h5.6c0.7,0,1.2-0.5,1.2-1.2c0-0.7-0.5-1.2-1.2-1.2h-5.6C143.3,100.8,142.7,101.3,142.7,102z M130.7,102
		c0,0.7,0.5,1.2,1.2,1.2h5.6c0.7,0,1.2-0.5,1.2-1.2c0-0.7-0.5-1.2-1.2-1.2h-5.6C131.2,100.8,130.7,101.3,130.7,102z M118.6,102
		c0,0.7,0.5,1.2,1.2,1.2h5.6c0.7,0,1.2-0.5,1.2-1.2c0-0.7-0.5-1.2-1.2-1.2h-5.6C119.2,100.8,118.6,101.3,118.6,102z M14.9,104.3
		c0,0.7,0.5,1.2,1.2,1.2c0.7,0,1.2-0.5,1.2-1.2v-0.6c0-0.2,0.2-0.4,0.4-0.4h0.6c0.7,0,1.2-0.5,1.2-1.2c0-0.7-0.5-1.2-1.2-1.2h-0.6
		c-1.5,0-2.8,1.3-2.8,2.8L14.9,104.3L14.9,104.3z M14.9,115.3c0,0.7,0.5,1.2,1.2,1.2c0.7,0,1.2-0.5,1.2-1.2v-5.6
		c0-0.7-0.5-1.2-1.2-1.2c-0.7,0-1.2,0.5-1.2,1.2V115.3z M14.9,127.3c0,0.7,0.5,1.2,1.2,1.2c0.7,0,1.2-0.5,1.2-1.2v-5.6
		c0-0.7-0.5-1.2-1.2-1.2c-0.7,0-1.2,0.5-1.2,1.2V127.3z M14.9,139.4c0,0.7,0.5,1.2,1.2,1.2c0.7,0,1.2-0.5,1.2-1.2v-5.6
		c0-0.7-0.5-1.2-1.2-1.2c-0.7,0-1.2,0.5-1.2,1.2V139.4z M14.9,151.4c0,0.7,0.5,1.2,1.2,1.2c0.7,0,1.2-0.5,1.2-1.2v-5.6
		c0-0.7-0.5-1.2-1.2-1.2c-0.7,0-1.2,0.5-1.2,1.2V151.4z M14.9,163.5c0,0.7,0.5,1.2,1.2,1.2c0.7,0,1.2-0.5,1.2-1.2v-5.6
		c0-0.7-0.5-1.2-1.2-1.2c-0.7,0-1.2,0.5-1.2,1.2V163.5z M14.9,175.5c0,0.7,0.5,1.2,1.2,1.2c0.7,0,1.2-0.5,1.2-1.2v-5.6
		c0-0.7-0.5-1.2-1.2-1.2c-0.7,0-1.2,0.5-1.2,1.2V175.5z M14.9,187.6c0,0.7,0.5,1.2,1.2,1.2c0.7,0,1.2-0.5,1.2-1.2V182
		c0-0.7-0.5-1.2-1.2-1.2c-0.7,0-1.2,0.5-1.2,1.2V187.6z M19.6,195.2c0-0.7-0.5-1.2-1.2-1.2h-0.6c-0.2,0-0.4-0.2-0.4-0.4V193
		c0-0.7-0.5-1.2-1.2-1.2c-0.7,0-1.2,0.5-1.2,1.2v0.6c0,1.5,1.3,2.8,2.8,2.8h0.6C19,196.4,19.6,195.9,19.6,195.2z M30.2,195.2
		c0-0.7-0.5-1.2-1.2-1.2h-5.6c-0.7,0-1.2,0.5-1.2,1.2s0.5,1.2,1.2,1.2H29C29.7,196.4,30.2,195.9,30.2,195.2z M30.2,102
		c0-0.7-0.5-1.2-1.2-1.2h-5.6c-0.7,0-1.2,0.5-1.2,1.2c0,0.7,0.5,1.2,1.2,1.2H29C29.7,103.2,30.2,102.7,30.2,102z M42.3,195.2
		c0-0.7-0.5-1.2-1.2-1.2h-5.6c-0.7,0-1.2,0.5-1.2,1.2s0.5,1.2,1.2,1.2h5.6C41.8,196.4,42.3,195.9,42.3,195.2z M42.3,102
		c0-0.7-0.5-1.2-1.2-1.2h-5.6c-0.7,0-1.2,0.5-1.2,1.2c0,0.7,0.5,1.2,1.2,1.2h5.6C41.8,103.2,42.3,102.7,42.3,102z M54.4,195.2
		c0-0.7-0.5-1.2-1.2-1.2h-5.6c-0.7,0-1.2,0.5-1.2,1.2s0.5,1.2,1.2,1.2h5.6C53.8,196.4,54.4,195.9,54.4,195.2z M54.4,102
		c0-0.7-0.5-1.2-1.2-1.2h-5.6c-0.7,0-1.2,0.5-1.2,1.2c0,0.7,0.5,1.2,1.2,1.2h5.6C53.8,103.2,54.4,102.7,54.4,102z M66.4,195.2
		c0-0.7-0.5-1.2-1.2-1.2h-5.6c-0.7,0-1.2,0.5-1.2,1.2s0.5,1.2,1.2,1.2h5.6C65.9,196.4,66.4,195.9,66.4,195.2z M66.4,102
		c0-0.7-0.5-1.2-1.2-1.2h-5.6c-0.7,0-1.2,0.5-1.2,1.2c0,0.7,0.5,1.2,1.2,1.2h5.6C65.9,103.2,66.4,102.7,66.4,102z M78.5,195.2
		c0-0.7-0.5-1.2-1.2-1.2h-5.6c-0.7,0-1.2,0.5-1.2,1.2s0.5,1.2,1.2,1.2h5.6C77.9,196.4,78.5,195.9,78.5,195.2z M78.5,102
		c0-0.7-0.5-1.2-1.2-1.2h-5.6c-0.7,0-1.2,0.5-1.2,1.2c0,0.7,0.5,1.2,1.2,1.2h5.6C77.9,103.2,78.5,102.7,78.5,102z M90.5,195.2
		c0-0.7-0.5-1.2-1.2-1.2h-5.6c-0.7,0-1.2,0.5-1.2,1.2s0.5,1.2,1.2,1.2h5.6C90,196.4,90.5,195.9,90.5,195.2z M90.5,102
		c0-0.7-0.5-1.2-1.2-1.2h-5.6c-0.7,0-1.2,0.5-1.2,1.2c0,0.7,0.5,1.2,1.2,1.2h5.6C90,103.2,90.5,102.7,90.5,102z M102.6,195.2
		c0-0.7-0.5-1.2-1.2-1.2h-5.6c-0.7,0-1.2,0.5-1.2,1.2s0.5,1.2,1.2,1.2h5.6C102,196.4,102.6,195.9,102.6,195.2z M102.6,102
		c0-0.7-0.5-1.2-1.2-1.2h-5.6c-0.7,0-1.2,0.5-1.2,1.2c0,0.7,0.5,1.2,1.2,1.2h5.6C102,103.2,102.6,102.7,102.6,102z M114.6,195.2
		c0-0.7-0.5-1.2-1.2-1.2h-5.6c-0.7,0-1.2,0.5-1.2,1.2s0.5,1.2,1.2,1.2h5.6C114.1,196.4,114.6,195.9,114.6,195.2z M114.6,102
		c0-0.7-0.5-1.2-1.2-1.2h-5.6c-0.7,0-1.2,0.5-1.2,1.2c0,0.7,0.5,1.2,1.2,1.2h5.6C114.1,103.2,114.6,102.7,114.6,102z M126.7,195.2
		c0-0.7-0.5-1.2-1.2-1.2h-5.6c-0.7,0-1.2,0.5-1.2,1.2s0.5,1.2,1.2,1.2h5.6C126.1,196.4,126.7,195.9,126.7,195.2z M155.7,175.5
		c0,0.7,0.5,1.2,1.2,1.2s1.2-0.5,1.2-1.2v-5.6c0-0.7-0.5-1.2-1.2-1.2s-1.2,0.5-1.2,1.2V175.5z M155.7,187.6c0,0.7,0.5,1.2,1.2,1.2
		s1.2-0.5,1.2-1.2V182c0-0.7-0.5-1.2-1.2-1.2s-1.2,0.5-1.2,1.2V187.6z M153.4,195.2c0,0.7,0.5,1.2,1.2,1.2h0.6
		c1.5,0,2.8-1.3,2.8-2.8V193c0-0.7-0.5-1.2-1.2-1.2s-1.2,0.5-1.2,1.2v0.6c0,0.2-0.2,0.4-0.4,0.4h-0.6
		C154,194,153.4,194.6,153.4,195.2z M142.7,195.2c0,0.7,0.5,1.2,1.2,1.2h5.6c0.7,0,1.2-0.5,1.2-1.2s-0.5-1.2-1.2-1.2h-5.6
		C143.3,194,142.7,194.6,142.7,195.2z M137.5,194h-5.6c-0.7,0-1.2,0.5-1.2,1.2s0.5,1.2,1.2,1.2h5.6c0.7,0,1.2-0.5,1.2-1.2
		S138.2,194,137.5,194z"/>
	<path class="st1" d="M57.8,58.7l3.5,2.7c-0.8,0.7-2.2,2-3.3,4.5c0,0.1,0,0.1-0.1,0.2l-4.8,3.8c-0.1-1,0-2,0.2-3.1l-1.8-0.8
		c-0.4-0.2-0.7-0.5-0.9-0.9c-0.2-0.4-0.2-0.9,0-1.3l0.1-0.3c0.2-0.4,0.5-0.7,0.9-0.9c0.4-0.2,0.9-0.2,1.3,0l1.5,0.7
		C55.6,60.9,56.8,59.6,57.8,58.7z M109.1,24.2L67.3,6.2c-3.6-1.6-7.9,0.1-9.4,3.8L24.7,87.4h4.6l28.4-66.3l4-9.4
		c0.7-1.5,2.4-2.2,3.9-1.6l9.4,4l31.4,13.4l3.7-2.9C109.8,24.5,109.5,24.3,109.1,24.2z M97.5,25.7C97.5,25.7,97.5,25.7,97.5,25.7
		l-23.2-10c-3,5.1-9.1,7.5-14.9,6L31.4,87L46,75.5c-2.3-4.5-2.7-9.6-0.8-14.2c3.9-9.1,15.9-12.8,26.8-8.1c0.5,0.2,0.9,0.4,1.4,0.6
		L98,34.3C96.9,31.6,96.6,28.6,97.5,25.7z"/>
</g>
<g class="st0">
	<path class="st1" d="M234.7,205.4l0.3-84.8l-15.4,84.8H206l-15.4-84.7l0.3,84.7h-15.1v-99.3c0-7.7,6.3-14,14-14h10.4l12.6,79
		l12.6-79h24.4v113.4H234.7z"/>
	<path class="st1" d="M258.9,113.8c0-16.7,10.4-23.7,24.3-23.7c14.1,0,22.5,7.1,22.5,23.7v69.9c0,17-10.8,23.7-23.2,23.7
		c-12.7,0-23.5-7-23.5-23.7V113.8z M290.6,115.8c0-8.3-4.1-11.2-8.3-11.2c-4.1,0-8.3,3-8.3,11.2v66c0,8.3,4.1,11.2,8.3,11.2
		c4.1,0,8.3-3,8.3-11.2V115.8z"/>
	<path class="st1" d="M349.7,205.4l-20-75.6l0.3,75.6h-15.1V92.1h18.9l20.7,77l-0.3-77h15.1v113.4H349.7z"/>
	<path class="st1" d="M379.3,205.4V92.1h15.1v113.4H379.3z"/>
	<path class="st1" d="M413.6,205.4v-99h-14.1V92.1h43.2v14.4h-14.1v99H413.6z"/>
	<path class="st1" d="M447.2,113.8c0-16.7,10.4-23.7,24.3-23.7c14.1,0,22.5,7.1,22.5,23.7v69.9c0,17-10.8,23.7-23.2,23.7
		c-12.7,0-23.5-7-23.5-23.7V113.8z M478.9,115.8c0-8.3-4.1-11.2-8.3-11.2c-4.1,0-8.3,3-8.3,11.2v66c0,8.3,4.1,11.2,8.3,11.2
		c4.1,0,8.3-3,8.3-11.2V115.8z"/>
	<path class="st1" d="M537,205.4l-13-46.6h-5.8v46.6h-15.1V92.1h25.2c11.4,0,20.9,6.7,20.9,23.7V134c0,11.4-2.7,18.1-11,21.6
		l13.9,49.9H537z M534.1,117.7c0-8.3-2.7-11.2-8.3-11.2h-7.5v38h7.5c5.6,0,8.3-3,8.3-11.2V117.7z"/>
	<path class="st1" d="M573.6,205.4V92.1h40.6v14.4h-25.5v34.6h24.4v14.4h-24.4v35.7h25.5v14.4H573.6z"/>
	<path class="st1" d="M656.9,205.4l-12.4-42.9l-13.9,42.9h-15.1l20.3-58.3l-19.4-55.1h15.2l12.9,39.1l12-39.1h15.2l-17.5,55.2
		l17.8,58.2H656.9z"/>
	<path class="st1" d="M720.7,183.7c0,17-10.8,23.7-23.2,23.7c-12.7,0-23.5-7-23.5-23.7v-69.9c0-16.7,10.7-23.7,24-23.7
		c11.8,0,22.8,5.6,22.8,22.6v18.8h-15.1v-15.8c0-8.3-4.1-11.2-8.3-11.2c-4.1,0-8.3,3-8.3,11.2v66c0,8.3,4.1,11.2,8.3,11.2
		c4.1,0,8.3-3,8.3-11.2v-14.2h15.1V183.7z"/>
	<path class="st1" d="M760.2,205.4v-50h-16.6v50h-15.1V92.1h15.1v49h16.6v-49h15.1v113.4H760.2z"/>
	<path class="st1" d="M817.5,205.4l-3-25.2h-16.7l-3,25.2h-15.1L795,92.1h22.2l15.4,113.4H817.5z M806.1,109.4l-6.7,56.5h13.3
		L806.1,109.4z"/>
	<path class="st1" d="M871.8,205.4l-20-75.6l0.3,75.6H837V92.1H856l20.7,77l-0.3-77h15.1v113.4H871.8z"/>
	<path class="st1" d="M933.8,161.8h-10.1v-14.4h25.2v36.3c0,17-10.8,23.7-24,23.7c-13.5,0-24.3-7-24.3-23.7v-69.9
		c0-16.7,10.4-23.7,24.3-23.7c14.1,0,24,7.1,24,23.7v17.6h-15.1v-15.7c0-8.3-4.1-11.2-9-11.2s-9,3-9,11.2v66c0,8.3,4.1,11.2,9,11.2
		s9-3,9-11.2V161.8z"/>
	<path class="st1" d="M957.2,205.4V92.1h40.6v14.4h-25.5v34.6h24.4v14.4h-24.4v35.7h25.5v14.4H957.2z"/>
	<path class="st1" d="M1056.4,205.4l-13-46.6h-5.8v46.6h-15.1V92.1h25.2c11.4,0,20.9,6.7,20.9,23.7V134c0,11.4-2.7,18.1-11,21.6
		l13.9,49.9H1056.4z M1053.4,117.7c0-8.3-2.7-11.2-8.3-11.2h-7.5v38h7.5c5.6,0,8.3-3,8.3-11.2V117.7z"/>
	<path class="st1" d="M1108.4,205.4l-3-25.2h-16.7l-3,25.2h-15.1L1086,92.1h22.2l15.4,113.4H1108.4z M1097.1,109.4l-6.7,56.5h13.3
		L1097.1,109.4z"/>
	<path class="st1" d="M1132.9,205.4v-99h-14.1V92.1h43.2v14.4H1148v99H1132.9z"/>
	<path class="st1" d="M1167.2,205.4V92.1h40.6v14.4h-25.5v34.6h24.4v14.4h-24.4v35.7h25.5v14.4H1167.2z"/>
	<path class="st1" d="M1260.1,183.7c0,16.4-9.6,23.7-23.4,23.7s-23.4-7.5-23.4-23.7v-16.1h15.1v14.2c0,8.3,4.1,11.2,8.3,11.2
		s8.3-3,8.3-11.2v-9.3c0-12.6-31.7-22.9-31.7-44.4v-14.2c0-16.7,10.8-23.7,23.4-23.7c14.5,0,23.4,6.7,23.4,23.7v17.8H1245v-15.8
		c0-8.3-4.1-11.2-8.3-11.2s-8.3,3-8.3,11.2v9.5c0,17.2,31.7,22.9,31.7,44.1V183.7z"/>
</g>
</svg>
