<?xml version="1.0" encoding="utf-8"?>
<!-- Generator: Adobe Illustrator 19.2.0, SVG Export Plug-In . SVG Version: 6.00 Build 0)  -->
<svg version="1.1" id="Warstwa_1" xmlns="http://www.w3.org/2000/svg" xmlns:xlink="http://www.w3.org/1999/xlink" x="0px" y="0px"
	 viewBox="0 0 206 206" style="enable-background:new 0 0 206 206;" xml:space="preserve">
<style type="text/css">
	.st0{fill:#502638;}
	.st1{fill:#381B29;}
	.st2{fill:#C4D88B;}
	.st3{fill:#677249;}
	.st4{fill:#7F8F5B;}
	.st5{fill:#454C31;}
</style>
<g>
	<circle class="st0" cx="103.1" cy="103" r="100"/>
	<path class="st1" d="M201.9,118.1l-11.2-10.7L133.3,50l-15.8,5.3l-14.6,15.1L115,83.2l3.7-3.6l-3.6,6.8l-5.7,14.6l4.7,15.1
		l-12.5,7.8l-7-28.6L94,99.7l-4.9,22l14.3,48.4l28.7,28.7C168.4,187.7,196,156.5,201.9,118.1z"/>
	<g>
		<ellipse class="st2" cx="103.7" cy="77.1" rx="21" ry="19.2"/>
		<path class="st3" d="M130,46.6c0,0-11.6-10-27-10.1c0,0,0,0,0,0h0c-15.3,0.1-27,10.1-27,10.1S39.9,74,78.3,118.7
			c11.7,13.6,16.6,24.3,18.4,30.5c0,0,4.3,10.9,6.3,20.2v0.1c0,0,0,0,0,0c0,0,0,0,0,0v-0.1c2-9.4,6.3-20.2,6.3-20.2
			c1.8-6.2,6.7-16.9,18.4-30.5C166.1,74,130,46.6,130,46.6z M103,86.7c-7.2,0-13-5.8-13-13c0-7.2,5.8-13,13-13c7.2,0,13,5.8,13,13
			C116,80.9,110.2,86.7,103,86.7z"/>
		<path class="st4" d="M69.5,58.5c0,0,7.9-14.6,24-15.9c0,0-13.7,12.5-14.7,25.8C78.8,68.4,68.5,66.7,69.5,58.5z"/>
		<path class="st5" d="M98.1,148.7c0,0,4.9,15.1,4.9,17.2c0,0,3.3-15.3,5.1-16.8C108.1,149.1,102.1,153.7,98.1,148.7z"/>
	</g>
</g>
</svg>
