<?xml version="1.0" encoding="utf-8"?>
<!-- Generator: Adobe Illustrator 19.2.0, SVG Export Plug-In . SVG Version: 6.00 Build 0)  -->
<svg version="1.1" id="Warstwa_1" xmlns="http://www.w3.org/2000/svg" xmlns:xlink="http://www.w3.org/1999/xlink" x="0px" y="0px"
	 viewBox="0 0 206 206" style="enable-background:new 0 0 206 206;" xml:space="preserve">
<style type="text/css">
	.st0{fill:#562D29;}
	.st1{clip-path:url(#SVGID_2_);fill:#3D1F1D;}
	.st2{fill:#016938;}
	.st3{fill:#027B38;}
	.st4{fill:#89BC49;}
	.st5{fill:#92C142;}
	.st6{clip-path:url(#SVGID_4_);}
	.st7{fill:#3C9C36;}
	.st8{fill:#F49C0B;}
	.st9{opacity:0.67;fill:#E48316;enable-background:new    ;}
	.st10{fill:#FBCA76;}
	.st11{opacity:0.5;fill:#F9C187;enable-background:new    ;}
	.st12{fill:#D17311;}
	.st13{clip-path:url(#SVGID_6_);fill:#CA6213;}
	.st14{clip-path:url(#SVGID_8_);fill:#C56415;}
	.st15{fill:#D8B997;}
	.st16{fill:#F1D2AE;}
	.st17{fill:#C8A57E;}
</style>
<g id="Layer_2">
	<g>
		<circle class="st0" cx="103" cy="103" r="100"/>
		<g>
			<g>
				<defs>
					<circle id="SVGID_1_" cx="103" cy="103" r="100"/>
				</defs>
				<clipPath id="SVGID_2_">
					<use xlink:href="#SVGID_1_"  style="overflow:visible;"/>
				</clipPath>
				<polygon class="st1" points="48.8,165.4 86.6,203 203,203 203,107 149.1,52.9 145.8,51.6 130.9,36.6 119.7,39.3 108.8,28.6 
					74.3,95.6 				"/>
			</g>
		</g>
		<g>
			<path class="st2" d="M94.9,33.8l-45,98.6c-1.4,3.1,0,6.9,3.1,8.3l43.1,19.7c3.1,1.4,6.9,0,8.3-3.1l45-98.6c1.4-3.1,0-6.9-3.1-8.3
				l-43.1-19.7C100,29.2,96.3,30.6,94.9,33.8z"/>
			<path class="st3" d="M72.4,37.5l-5.8,108.2c-0.2,3.4,2.5,6.4,5.9,6.6l47.3,2.5c3.4,0.2,6.4-2.5,6.6-5.9l5.8-108.2
				c0.2-3.4-2.5-6.4-5.9-6.6L79,31.6C75.5,31.4,72.6,34.1,72.4,37.5z"/>
			<path class="st4" d="M54.1,51.7l37.7,101.6c1.2,3.2,4.8,4.9,8,3.7l44.4-16.5c3.2-1.2,4.9-4.8,3.7-8L110.3,30.8
				c-1.2-3.2-4.8-4.9-8-3.7L57.8,43.6C54.6,44.8,52.9,48.4,54.1,51.7z"/>
			<path class="st5" d="M54.1,51.7l37.7,101.6c1.2,3.2,4.8,4.9,8,3.7l44.4-16.5c3.2-1.2,4.9-4.8,3.7-8L110.3,30.8
				c-1.2-3.2-4.8-4.9-8-3.7L57.8,43.6C54.6,44.8,52.9,48.4,54.1,51.7z"/>
			<g>
				<g>
					<defs>
						<path id="SVGID_3_" d="M54.1,51.7l37.7,101.6c1.2,3.2,4.8,4.9,8,3.7l44.4-16.5c3.2-1.2,4.9-4.8,3.7-8L110.3,30.8
							c-1.2-3.2-4.8-4.9-8-3.7L57.8,43.6C54.6,44.8,52.9,48.4,54.1,51.7z"/>
					</defs>
					<clipPath id="SVGID_4_">
						<use xlink:href="#SVGID_3_"  style="overflow:visible;"/>
					</clipPath>
					<g class="st6">
						<path class="st7" d="M67.5,38.7c0.2,0.4,0.4,0.8,0.5,1.2v0L92,30.9c0,0,0,0,0,0c-0.2-0.4-0.3-0.8-0.4-1.2l17.6-6.5l6.4,17.1
							c-0.4,0.2-0.9,0.4-1.4,0.6l30.2,81.2c0.5-0.2,1-0.3,1.4-0.4l7.3,19.6l-17.2,6.4c-0.7-1.1-1.3-2.2-1.8-3.5v0l-24.1,8.9
							c0,0,0,0,0,0c0.5,1.2,0.8,2.5,0.9,3.8l-16.6,6.2l-7.3-19.6c0.3-0.1,0.7-0.3,1-0.4L57.9,61.8c-0.3,0.1-0.7,0.2-1,0.3L50.5,45
							L67.5,38.7z M62.6,59.2L93.4,142c5.4-0.2,10.6,2.2,14,6.4l25.7-9.5c-0.2-5.5,2.2-10.8,6.6-14.1L108.9,42
							c-5.5,0.3-10.8-2.1-14.2-6.4L69,45.2C69.2,50.6,66.8,55.8,62.6,59.2z"/>
					</g>
				</g>
			</g>
			
				<ellipse transform="matrix(0.9374 -0.3483 0.3483 0.9374 -25.7185 40.9567)" class="st7" cx="101.1" cy="92" rx="18.4" ry="14.4"/>
			<path class="st7" d="M79.4,56.7l3.9,10.5c1.4,3.7,5.5,5.6,9.2,4.2l0.7-0.3c3.7-1.4,5.6-5.5,4.2-9.2l-3.9-10.5
				c-1.4-3.7-5.5-5.6-9.2-4.2l-0.7,0.3C79.9,48.9,78.1,53,79.4,56.7z"/>
			<path class="st7" d="M103.8,122.3l3.9,10.5c1.4,3.7,5.5,5.6,9.2,4.2l0.7-0.3c3.7-1.4,5.6-5.5,4.2-9.2l-3.9-10.5
				c-1.4-3.7-5.5-5.6-9.2-4.2l-0.7,0.3C104.3,114.4,102.4,118.6,103.8,122.3z"/>
		</g>
		<path class="st8" d="M152.6,167.5H53.2c-3.5,0-6.3-2.8-6.3-6.3v-73c0-3.5,2.8-6.3,6.3-6.3h99.3c3.5,0,6.3,2.8,6.3,6.3v73
			C158.8,164.7,156,167.5,152.6,167.5z"/>
		<path class="st9" d="M152.3,81.9h-4.9c3.6,0,6.6,2.9,6.6,6.6v47.6l-34.8-3.1l32.7,32.7c-1.2,1.1-2.7,1.7-4.4,1.7h4.9
			c3.6,0,6.6-2.9,6.6-6.6V88.5C158.8,84.9,155.9,81.9,152.3,81.9z"/>
		<path class="st10" d="M139.4,161h-3.3c-0.5,0-0.8-0.4-0.8-0.8c0-0.5,0.4-0.8,0.8-0.8h3.3c0.5,0,0.8,0.4,0.8,0.8
			C140.2,160.7,139.8,161,139.4,161z M127.8,161h-3.3c-0.5,0-0.8-0.4-0.8-0.8c0-0.5,0.4-0.8,0.8-0.8h3.3c0.5,0,0.8,0.4,0.8,0.8
			S128.3,161,127.8,161z M116.3,161H113c-0.5,0-0.8-0.4-0.8-0.8c0-0.5,0.4-0.8,0.8-0.8h3.3c0.5,0,0.8,0.4,0.8,0.8
			S116.7,161,116.3,161z M104.7,161h-3.3c-0.5,0-0.8-0.4-0.8-0.8c0-0.5,0.4-0.8,0.8-0.8h3.3c0.5,0,0.8,0.4,0.8,0.8
			S105.2,161,104.7,161z M93.2,161h-3.3c-0.5,0-0.8-0.4-0.8-0.8c0-0.5,0.4-0.8,0.8-0.8h3.3c0.5,0,0.8,0.4,0.8,0.8S93.6,161,93.2,161
			z M81.6,161h-3.3c-0.5,0-0.8-0.4-0.8-0.8c0-0.5,0.4-0.8,0.8-0.8h3.3c0.5,0,0.8,0.4,0.8,0.8C82.4,160.7,82.1,161,81.6,161z M70,161
			h-3.3c-0.5,0-0.8-0.4-0.8-0.8c0-0.5,0.4-0.8,0.8-0.8H70c0.5,0,0.8,0.4,0.8,0.8C70.9,160.7,70.5,161,70,161z M58.5,161L58.5,161
			c-1.4,0-2.5-1.1-2.5-2.5v-0.7c0-0.5,0.4-0.8,0.8-0.8c0.5,0,0.8,0.4,0.8,0.8v0.7c0,0.5,0.4,0.8,0.8,0.8c0.5,0,0.8,0.4,0.8,0.8
			C59.3,160.7,58.9,161,58.5,161z M147.6,161c-0.4,0-0.7-0.3-0.8-0.7c-0.1-0.4,0.2-0.9,0.7-0.9c0.4-0.1,0.7-0.4,0.7-0.8v-1
			c0-0.5,0.4-0.8,0.8-0.8c0.5,0,0.8,0.4,0.8,0.8v1c0,1.2-0.9,2.2-2.1,2.4C147.7,161,147.7,161,147.6,161z M56.8,150.4
			c-0.5,0-0.8-0.4-0.8-0.8v-3.3c0-0.5,0.4-0.8,0.8-0.8s0.8,0.4,0.8,0.8v3.3C57.6,150,57.3,150.4,56.8,150.4z M149,150.1
			c-0.5,0-0.8-0.4-0.8-0.8V146c0-0.5,0.4-0.8,0.8-0.8c0.5,0,0.8,0.4,0.8,0.8v3.3C149.9,149.8,149.5,150.1,149,150.1z M56.8,138.8
			c-0.5,0-0.8-0.4-0.8-0.8v-3.3c0-0.5,0.4-0.8,0.8-0.8s0.8,0.4,0.8,0.8v3.3C57.6,138.5,57.3,138.8,56.8,138.8z M56.8,127.3
			c-0.5,0-0.8-0.4-0.8-0.8v-3.3c0-0.5,0.4-0.8,0.8-0.8s0.8,0.4,0.8,0.8v3.3C57.6,126.9,57.3,127.3,56.8,127.3z M56.8,115.7
			c-0.5,0-0.8-0.4-0.8-0.8v-3.3c0-0.5,0.4-0.8,0.8-0.8s0.8,0.4,0.8,0.8v3.3C57.6,115.4,57.3,115.7,56.8,115.7z M56.8,104.2
			c-0.5,0-0.8-0.4-0.8-0.8V100c0-0.5,0.4-0.8,0.8-0.8s0.8,0.4,0.8,0.8v3.3C57.6,103.8,57.3,104.2,56.8,104.2z M149,103.9
			c-0.5,0-0.8-0.4-0.8-0.8v-3.3c0-0.5,0.4-0.8,0.8-0.8c0.5,0,0.8,0.4,0.8,0.8v3.3C149.9,103.5,149.5,103.9,149,103.9z M56.8,92.6
			c-0.5,0-0.8-0.4-0.8-0.8v-1c0-1.2,0.9-2.3,2.1-2.4c0.4-0.1,0.9,0.2,0.9,0.7c0.1,0.4-0.2,0.9-0.7,0.9c-0.4,0.1-0.7,0.4-0.7,0.8v1
			C57.6,92.2,57.3,92.6,56.8,92.6z M149,92.3c-0.5,0-0.8-0.4-0.8-0.8v-0.7c0-0.5-0.4-0.8-0.8-0.8c-0.5,0-0.8-0.4-0.8-0.8
			s0.4-0.8,0.8-0.8h0c1.4,0,2.5,1.1,2.5,2.5v0.7C149.9,92,149.5,92.3,149,92.3z M139.1,90h-3.3c-0.5,0-0.8-0.4-0.8-0.8
			s0.4-0.8,0.8-0.8h3.3c0.5,0,0.8,0.4,0.8,0.8S139.6,90,139.1,90z M127.6,90h-3.3c-0.5,0-0.8-0.4-0.8-0.8s0.4-0.8,0.8-0.8h3.3
			c0.5,0,0.8,0.4,0.8,0.8S128,90,127.6,90z M116,90h-3.3c-0.5,0-0.8-0.4-0.8-0.8s0.4-0.8,0.8-0.8h3.3c0.5,0,0.8,0.4,0.8,0.8
			S116.5,90,116,90z M104.4,90h-3.3c-0.5,0-0.8-0.4-0.8-0.8s0.4-0.8,0.8-0.8h3.3c0.5,0,0.8,0.4,0.8,0.8S104.9,90,104.4,90z M92.9,90
			h-3.3c-0.5,0-0.8-0.4-0.8-0.8s0.4-0.8,0.8-0.8h3.3c0.5,0,0.8,0.4,0.8,0.8S93.3,90,92.9,90z M81.3,90H78c-0.5,0-0.8-0.4-0.8-0.8
			s0.4-0.8,0.8-0.8h3.3c0.5,0,0.8,0.4,0.8,0.8S81.8,90,81.3,90z M69.8,90h-3.3c-0.5,0-0.8-0.4-0.8-0.8s0.4-0.8,0.8-0.8h3.3
			c0.5,0,0.8,0.4,0.8,0.8S70.2,90,69.8,90z"/>
		<path class="st11" d="M51.9,160.9V88.5c0-3.6,2.9-6.6,6.6-6.6h-4.9c-3.6,0-6.6,2.9-6.6,6.6v72.4c0,3.6,2.9,6.6,6.6,6.6h4.9
			C54.9,167.5,51.9,164.5,51.9,160.9z"/>
		<path class="st12" d="M159,137.8h-30.4c-6.9,0-12.5-5.6-12.5-12.5V124c0-6.9,5.6-12.5,12.5-12.5H159c1.7,0,3.1,1.4,3.1,3.1v20.1
			C162.1,136.4,160.7,137.8,159,137.8z"/>
		<g>
			<g>
				<defs>
					<path id="SVGID_5_" d="M158.8,111.5h-7.9v26.3h7.9c1.8,0,3.3-1.5,3.3-3.3v-19.7C162.1,113,160.7,111.5,158.8,111.5z"/>
				</defs>
				<clipPath id="SVGID_6_">
					<use xlink:href="#SVGID_5_"  style="overflow:visible;"/>
				</clipPath>
				<rect x="157.2" y="105.5" class="st13" width="4.9" height="40.1"/>
			</g>
		</g>
		<g>
			<g>
				<defs>
					<path id="SVGID_7_" d="M159,137.8h-30.4c-6.9,0-12.5-5.6-12.5-12.5V124c0-6.9,5.6-12.5,12.5-12.5H159c1.7,0,3.1,1.4,3.1,3.1
						v20.1C162.1,136.4,160.7,137.8,159,137.8z"/>
				</defs>
				<clipPath id="SVGID_8_">
					<use xlink:href="#SVGID_7_"  style="overflow:visible;"/>
				</clipPath>
				<polygon class="st14" points="124.6,129.1 134.2,138.6 151.2,138.6 133.2,120.6 				"/>
			</g>
		</g>
		<g>
			<circle class="st15" cx="128.7" cy="124.7" r="6.1"/>
			<path class="st16" d="M125.9,124.7c0-2.4,0.7-4.5,1.9-6c-2.9,0.4-5.2,2.9-5.2,6c0,3.1,2.3,5.6,5.2,6
				C126.7,129.2,125.9,127.1,125.9,124.7z"/>
			<path class="st17" d="M131.5,124.7c0,2.4-0.7,4.5-1.9,6c2.9-0.4,5.2-2.9,5.2-6c0-3.1-2.3-5.6-5.2-6
				C130.8,120.2,131.5,122.3,131.5,124.7z"/>
		</g>
	</g>
</g>
</svg>
